<?xml version="1.0" encoding="UTF-8" standalone="no"?>
<!DOCTYPE svg PUBLIC "-//W3C//DTD SVG 1.1//EN" "http://www.w3.org/Graphics/SVG/1.1/DTD/svg11.dtd">
<!-- Generiert durch Microsoft Visio, SVG Export Attestation-Structures.svg Page-1 -->
<svg xmlns="http://www.w3.org/2000/svg" xmlns:xlink="http://www.w3.org/1999/xlink" xmlns:ev="http://www.w3.org/2001/xml-events"
		xmlns:v="http://schemas.microsoft.com/visio/2003/SVGExtensions/" width="11.6929in" height="8.26772in"
		viewBox="0 0 841.89 595.276" xml:space="preserve" color-interpolation-filters="sRGB" class="st13">
	<v:documentProperties v:langID="1031" v:metric="true" v:viewMarkup="false">
		<v:userDefs>
			<v:ud v:nameU="msvSubprocessMaster" v:prompt="" v:val="VT4(Rectangle)"/>
			<v:ud v:nameU="msvNoAutoConnect" v:val="VT0(1):26"/>
		</v:userDefs>
	</v:documentProperties>

	<style type="text/css">
	<![CDATA[
		.st1 {fill:none;stroke:none;stroke-width:0.25}
		.st2 {fill:#000000;font-family:Calibri;font-size:0.833336em}
		.st3 {fill:none;stroke:#000000;stroke-linecap:round;stroke-linejoin:round;stroke-width:0.5}
		.st4 {stroke:#000000;stroke-linecap:round;stroke-linejoin:round;stroke-width:0.5}
		.st5 {fill:none;stroke:none;stroke-linecap:butt;stroke-width:0.75}
		.st6 {fill:#000000;font-family:Calibri;font-size:0.75em}
		.st7 {fill:#000000;font-family:Calibri;font-size:0.666664em}
		.st8 {fill:#ffffff;stroke:none;stroke-linecap:butt;stroke-width:1}
		.st9 {fill:none}
		.st10 {fill:#000000;font-family:Calibri;font-size:0.583328em}
		.st11 {fill:none;stroke:#000000;stroke-width:0.25}
		.st12 {font-size:1em}
		.st13 {fill:none;fill-rule:evenodd;font-size:12px;overflow:visible;stroke-linecap:square;stroke-miterlimit:3}
	]]>
	</style>

	<g v:mID="0" v:index="1" v:groupContext="foregroundPage">
		<v:userDefs>
			<v:ud v:nameU="msvThemeOrder" v:val="VT0(0):26"/>
		</v:userDefs>
		<title>Zeichenblatt-1</title>
		<v:pageProperties v:drawingScale="0.0393701" v:pageScale="0.0393701" v:drawingUnits="24" v:shadowOffsetX="8.50394"
				v:shadowOffsetY="-8.50394"/>
		<g id="shape4-1" v:mID="4" v:groupContext="shape" transform="translate(18,-287.638)">
			<title>Tabelle.4</title>
			<desc>ATTESTATION OBJECT</desc>
			<v:textBlock v:margins="rect(4,4,4,4)" v:tabSpace="42.5197"/>
			<v:textRect cx="76" cy="585.276" width="152.01" height="20"/>
			<rect x="0" y="575.276" width="152" height="20" class="st1"/>
			<text x="4" y="588.28" class="st2" v:langID="1031"><v:paragraph/><v:tabList/>ATTESTATION OBJECT</text>		</g>
		<g id="shape7-4" v:mID="7" v:groupContext="shape" transform="translate(107.284,-448.405)">
			<title>rect40</title>
			<rect x="0" y="572.047" width="136.063" height="23.2281" class="st3"/>
		</g>
		<g id="shape8-6" v:mID="8" v:groupContext="shape" transform="translate(719.568,123.643) rotate(90)">
			<title>line42</title>
			<path d="M0 595.28 L4.65 595.28" class="st4"/>
		</g>
		<g id="shape9-9" v:mID="9" v:groupContext="shape" transform="translate(719.568,142.225) rotate(90)">
			<title>line44</title>
			<path d="M0 595.28 L4.65 595.28" class="st4"/>
		</g>
		<g id="shape10-12" v:mID="10" v:groupContext="shape" transform="translate(736.576,123.643) rotate(90)">
			<title>line46</title>
			<path d="M0 595.28 L4.65 595.28" class="st4"/>
		</g>
		<g id="shape11-15" v:mID="11" v:groupContext="shape" transform="translate(736.576,142.225) rotate(90)">
			<title>line48</title>
			<path d="M0 595.28 L4.65 595.28" class="st4"/>
		</g>
		<g id="shape12-18" v:mID="12" v:groupContext="shape" transform="translate(753.584,123.643) rotate(90)">
			<title>line50</title>
			<path d="M0 595.28 L4.65 595.28" class="st4"/>
		</g>
		<g id="shape13-21" v:mID="13" v:groupContext="shape" transform="translate(753.584,142.225) rotate(90)">
			<title>line52</title>
			<path d="M0 595.28 L4.65 595.28" class="st4"/>
		</g>
		<g id="shape14-24" v:mID="14" v:groupContext="shape" transform="translate(770.591,123.643) rotate(90)">
			<title>line54</title>
			<path d="M0 595.28 L4.65 595.28" class="st4"/>
		</g>
		<g id="shape15-27" v:mID="15" v:groupContext="shape" transform="translate(770.591,142.225) rotate(90)">
			<title>line56</title>
			<path d="M0 595.28 L4.65 595.28" class="st4"/>
		</g>
		<g id="shape16-30" v:mID="16" v:groupContext="shape" transform="translate(787.599,123.643) rotate(90)">
			<title>line58</title>
			<path d="M0 595.28 L4.65 595.28" class="st4"/>
		</g>
		<g id="shape17-33" v:mID="17" v:groupContext="shape" transform="translate(787.599,142.225) rotate(90)">
			<title>line60</title>
			<path d="M0 595.28 L4.65 595.28" class="st4"/>
		</g>
		<g id="shape18-36" v:mID="18" v:groupContext="shape" transform="translate(804.607,123.643) rotate(90)">
			<title>line62</title>
			<path d="M0 595.28 L4.65 595.28" class="st4"/>
		</g>
		<g id="shape19-39" v:mID="19" v:groupContext="shape" transform="translate(804.607,142.225) rotate(90)">
			<title>line64</title>
			<path d="M0 595.28 L4.65 595.28" class="st4"/>
		</g>
		<g id="shape20-42" v:mID="20" v:groupContext="shape" transform="translate(821.615,123.643) rotate(90)">
			<title>line66</title>
			<path d="M0 595.28 L4.65 595.28" class="st4"/>
		</g>
		<g id="shape21-45" v:mID="21" v:groupContext="shape" transform="translate(821.615,142.225) rotate(90)">
			<title>line68</title>
			<path d="M0 595.28 L4.65 595.28" class="st4"/>
		</g>
		<g id="shape22-48" v:mID="22" v:groupContext="shape" transform="translate(37.2214,-394.546)">
			<title>rect70</title>
			<rect x="0" y="572.598" width="115.417" height="22.6772" class="st3"/>
		</g>
		<g id="shape23-50" v:mID="23" v:groupContext="shape" transform="translate(63.3659,-398.885)">
			<title>text72</title>
			<desc>RP ID hash</desc>
			<v:textBlock v:margins="rect(0,0,0,0)" v:tabSpace="42.5197"/>
			<v:textRect cx="50.025" cy="589.276" width="100.05" height="12"/>
			<rect x="0" y="583.276" width="100.05" height="12" class="st5"/>
			<text x="0" y="592.28" class="st2" v:langID="1031"><v:paragraph/><v:tabList/>RP ID hash</text>		</g>
		<g id="shape24-53" v:mID="24" v:groupContext="shape" transform="translate(152.639,-394.546)">
			<title>rect76</title>
			<rect x="0" y="572.598" width="45.3543" height="22.6772" class="st3"/>
		</g>
		<g id="shape25-55" v:mID="25" v:groupContext="shape" transform="translate(159.366,-398.885)">
			<title>text78</title>
			<desc>FLAGS</desc>
			<v:textBlock v:margins="rect(0,0,0,0)" v:tabSpace="42.5197"/>
			<v:textRect cx="25.025" cy="589.276" width="50.05" height="12"/>
			<rect x="0" y="583.276" width="50.05" height="12" class="st5"/>
			<text x="0" y="592.28" class="st2" v:langID="1031"><v:paragraph/><v:tabList/>FLAGS</text>		</g>
		<g id="shape26-58" v:mID="26" v:groupContext="shape" transform="translate(147.273,-454.106)">
			<title>text82</title>
			<desc>0</desc>
			<v:textBlock v:margins="rect(0,0,0,0)" v:tabSpace="42.5197"/>
			<v:textRect cx="4.525" cy="589.876" width="9.05" height="10.8"/>
			<rect x="0" y="584.476" width="9.05" height="10.8" class="st5"/>
			<text x="0" y="592.58" class="st6" v:langID="1031"><v:paragraph/><v:tabList/>0</text>		</g>
		<g id="shape27-61" v:mID="27" v:groupContext="shape" transform="translate(164.281,-454.106)">
			<title>text86</title>
			<desc>0</desc>
			<v:textBlock v:margins="rect(0,0,0,0)" v:tabSpace="42.5197"/>
			<v:textRect cx="4.525" cy="589.876" width="9.05" height="10.8"/>
			<rect x="0" y="584.476" width="9.05" height="10.8" class="st5"/>
			<text x="0" y="592.58" class="st6" v:langID="1031"><v:paragraph/><v:tabList/>0</text>		</g>
		<g id="shape28-64" v:mID="28" v:groupContext="shape" transform="translate(181.289,-454.106)">
			<title>text90</title>
			<desc>0</desc>
			<v:textBlock v:margins="rect(0,0,0,0)" v:tabSpace="42.5197"/>
			<v:textRect cx="4.525" cy="589.876" width="9.05" height="10.8"/>
			<rect x="0" y="584.476" width="9.05" height="10.8" class="st5"/>
			<text x="0" y="592.58" class="st6" v:langID="1031"><v:paragraph/><v:tabList/>0</text>		</g>
		<g id="shape29-67" v:mID="29" v:groupContext="shape" transform="translate(198.297,-454.106)">
			<title>text94</title>
			<desc>0</desc>
			<v:textBlock v:margins="rect(0,0,0,0)" v:tabSpace="42.5197"/>
			<v:textRect cx="4.525" cy="589.876" width="9.05" height="10.8"/>
			<rect x="0" y="584.476" width="9.05" height="10.8" class="st5"/>
			<text x="0" y="592.58" class="st6" v:langID="1031"><v:paragraph/><v:tabList/>0</text>		</g>
		<g id="shape30-70" v:mID="30" v:groupContext="shape" transform="translate(215.305,-454.106)">
			<title>text98</title>
			<desc>0</desc>
			<v:textBlock v:margins="rect(0,0,0,0)" v:tabSpace="42.5197"/>
			<v:textRect cx="4.525" cy="589.876" width="9.05" height="10.8"/>
			<rect x="0" y="584.476" width="9.05" height="10.8" class="st5"/>
			<text x="0" y="592.58" class="st6" v:langID="1031"><v:paragraph/><v:tabList/>0</text>		</g>
		<g id="shape31-73" v:mID="31" v:groupContext="shape" transform="translate(126.85,-454.106)">
			<title>text102</title>
			<desc>AT</desc>
			<v:textBlock v:margins="rect(0,0,0,0)" v:tabSpace="42.5197"/>
			<v:textRect cx="9.025" cy="589.876" width="18.05" height="10.8"/>
			<rect x="0" y="584.476" width="18.05" height="10.8" class="st5"/>
			<text x="0" y="592.58" class="st6" v:langID="1031"><v:paragraph/><v:tabList/>AT</text>		</g>
		<g id="shape32-76" v:mID="32" v:groupContext="shape" transform="translate(109.842,-453.911)">
			<title>text106</title>
			<desc>ED</desc>
			<v:textBlock v:margins="rect(0,0,0,0)" v:tabSpace="42.5197"/>
			<v:textRect cx="9.025" cy="589.876" width="18.05" height="10.8"/>
			<rect x="0" y="584.476" width="18.05" height="10.8" class="st5"/>
			<text x="0" y="592.58" class="st6" v:langID="1031"><v:paragraph/><v:tabList/>ED</text>		</g>
		<g id="shape33-79" v:mID="33" v:groupContext="shape" transform="translate(227.046,-454.66)">
			<title>text110</title>
			<desc>TUP</desc>
			<v:textBlock v:margins="rect(0,0,0,0)" v:tabSpace="42.5197"/>
			<v:textRect cx="12.025" cy="590.476" width="24.06" height="9.6"/>
			<rect x="0" y="585.676" width="24.05" height="9.6" class="st5"/>
			<text x="0" y="592.88" class="st7" v:langID="1031"><v:paragraph/><v:tabList/>TUP</text>		</g>
		<g id="shape34-82" v:mID="34" v:groupContext="shape" transform="translate(197.993,-394.546)">
			<title>rect114</title>
			<rect x="0" y="572.598" width="101.417" height="22.6772" class="st3"/>
		</g>
		<g id="shape35-84" v:mID="35" v:groupContext="shape" transform="translate(224.697,-398.885)">
			<title>text116</title>
			<desc>COUNTER</desc>
			<v:textBlock v:margins="rect(0,0,0,0)" v:tabSpace="42.5197"/>
			<v:textRect cx="35.025" cy="589.276" width="70.06" height="12"/>
			<rect x="0" y="583.276" width="70.05" height="12" class="st5"/>
			<text x="0" y="592.28" class="st2" v:langID="1031"><v:paragraph/><v:tabList/>COUNTER</text>		</g>
		<g id="shape36-87" v:mID="36" v:groupContext="shape" transform="translate(299.41,-394.546)">
			<title>rect120</title>
			<rect x="0" y="572.598" width="130" height="22.6772" class="st3"/>
		</g>
		<g id="shape37-89" v:mID="37" v:groupContext="shape" transform="translate(313.697,-398.885)">
			<title>text122</title>
			<desc>ATTESTATION DATA</desc>
			<v:textBlock v:margins="rect(0,0,0,0)" v:tabSpace="42.5197"/>
			<v:textRect cx="80.025" cy="589.276" width="160.06" height="12"/>
			<rect x="0" y="583.276" width="160.05" height="12" class="st5"/>
			<text x="0" y="592.28" class="st2" v:langID="1031"><v:paragraph/><v:tabList/>ATTESTATION DATA</text>		</g>
		<g id="shape38-92" v:mID="38" v:groupContext="shape" transform="translate(429.41,-394.546)">
			<title>rect126</title>
			<rect x="0" y="572.598" width="118.898" height="22.6772" class="st3"/>
		</g>
		<g id="shape39-94" v:mID="39" v:groupContext="shape" transform="translate(458.004,-398.885)">
			<title>text128</title>
			<desc>EXTENSIONS</desc>
			<v:textBlock v:margins="rect(0,0,0,0)" v:tabSpace="42.5197"/>
			<v:textRect cx="50.025" cy="589.276" width="100.05" height="12"/>
			<rect x="0" y="583.276" width="100.05" height="12" class="st5"/>
			<text x="0" y="592.28" class="st2" v:langID="1031"><v:paragraph/><v:tabList/>EXTENSIONS</text>		</g>
		<g id="shape40-97" v:mID="40" v:groupContext="shape" transform="translate(528.465,-391.712)">
			<title>path132</title>
			<path d="M0 566.93 L2.83 576.38 L0 585.83 L2.83 595.28 L8.5 595.28 L5.67 585.83 L8.5 576.38 L5.67 566.93 L0 566.93 Z"
					class="st8"/>
		</g>
		<g id="shape41-99" v:mID="41" v:groupContext="shape" transform="translate(528.465,-391.712)">
			<title>path134</title>
			<path d="M0 566.93 L2.83 576.38 L0 585.83 L2.83 595.28 L0 566.93 Z" class="st9"/>
			<path d="M0 566.93 L2.83 576.38 L0 585.83 L2.83 595.28" class="st4"/>
		</g>
		<g id="shape42-102" v:mID="42" v:groupContext="shape" transform="translate(534.135,-391.712)">
			<title>path136</title>
			<path d="M0 566.93 L2.83 576.38 L0 585.83 L2.83 595.28 L0 566.93 Z" class="st9"/>
			<path d="M0 566.93 L2.83 576.38 L0 585.83 L2.83 595.28" class="st4"/>
		</g>
		<g id="shape43-105" v:mID="43" v:groupContext="shape" transform="translate(71.8363,-379.146)">
			<title>text138</title>
			<desc>32 bytes</desc>
			<v:textBlock v:margins="rect(0,0,0,0)" v:tabSpace="42.5197"/>
			<v:textRect cx="32.025" cy="590.476" width="64.05" height="9.6"/>
			<rect x="0" y="585.676" width="64.05" height="9.6" class="st5"/>
			<text x="0" y="592.88" class="st7" v:langID="1031"><v:paragraph/><v:tabList/>32 bytes</text>		</g>
		<g id="shape44-108" v:mID="44" v:groupContext="shape" transform="translate(163.836,-379.146)">
			<title>text142</title>
			<desc>1 byte</desc>
			<v:textBlock v:margins="rect(0,0,0,0)" v:tabSpace="42.5197"/>
			<v:textRect cx="24.025" cy="590.476" width="48.05" height="9.6"/>
			<rect x="0" y="585.676" width="48.05" height="9.6" class="st5"/>
			<text x="0" y="592.88" class="st7" v:langID="1031"><v:paragraph/><v:tabList/>1 byte</text>		</g>
		<g id="shape45-111" v:mID="45" v:groupContext="shape" transform="translate(201.435,-379.146)">
			<title>text146</title>
			<desc>4 bytes (big-endian uint32)</desc>
			<v:textBlock v:margins="rect(0,0,0,0)" v:tabSpace="42.5197"/>
			<v:textRect cx="108.025" cy="590.476" width="216.06" height="9.6"/>
			<rect x="0" y="585.676" width="216.05" height="9.6" class="st5"/>
			<text x="0" y="592.88" class="st7" v:langID="1031"><v:paragraph/><v:tabList/>4 bytes (big-endian uint32)</text>		</g>
		<g id="shape46-114" v:mID="46" v:groupContext="shape" transform="translate(315.576,-379.146)">
			<title>text150</title>
			<desc>variable length (if present)</desc>
			<v:textBlock v:margins="rect(0,0,0,0)" v:tabSpace="42.5197"/>
			<v:textRect cx="112.025" cy="590.476" width="224.06" height="9.6"/>
			<rect x="0" y="585.676" width="224.05" height="9.6" class="st5"/>
			<text x="0" y="592.88" class="st7" v:langID="1031"><v:paragraph/><v:tabList/>variable length (if present)</text>		</g>
		<g id="shape47-117" v:mID="47" v:groupContext="shape" transform="translate(407.834,-379.146)">
			<title>text154</title>
			<desc>variable length (CBOR)</desc>
			<v:textBlock v:margins="rect(0,0,0,0)" v:tabSpace="42.5197"/>
			<v:textRect cx="88.025" cy="590.476" width="176.05" height="9.6"/>
			<rect x="0" y="585.676" width="176.05" height="9.6" class="st5"/>
			<text x="0" y="592.88" class="st7" v:langID="1031"><v:paragraph/><v:tabList/>variable length (CBOR)</text>		</g>
		<g id="shape48-120" v:mID="48" v:groupContext="shape" transform="translate(432.019,-351.027) rotate(32.7352)">
			<title>line158</title>
			<path d="M0 595.28 L47.18 595.28" class="st4"/>
		</g>
		<g id="shape49-123" v:mID="49" v:groupContext="shape" transform="translate(562.413,650.439) rotate(147.265)">
			<title>line160</title>
			<path d="M0 595.28 L47.18 595.28" class="st4"/>
		</g>
		<g id="shape50-126" v:mID="50" v:groupContext="shape" transform="translate(239.046,-473.49)">
			<title>text162</title>
			<desc>0</desc>
			<v:textBlock v:margins="rect(0,0,0,0)" v:tabSpace="42.5197"/>
			<v:textRect cx="3.525" cy="591.076" width="7.06" height="8.4"/>
			<rect x="0" y="586.876" width="7.05" height="8.4" class="st5"/>
			<text x="0" y="593.18" class="st10" v:langID="1031"><v:paragraph/><v:tabList/>0</text>		</g>
		<g id="shape51-129" v:mID="51" v:groupContext="shape" transform="translate(106.59,-473.49)">
			<title>text166</title>
			<desc>7</desc>
			<v:textBlock v:margins="rect(0,0,0,0)" v:tabSpace="42.5197"/>
			<v:textRect cx="3.525" cy="591.076" width="7.06" height="8.4"/>
			<rect x="0" y="586.876" width="7.05" height="8.4" class="st5"/>
			<text x="0" y="593.18" class="st10" v:langID="1031"><v:paragraph/><v:tabList/>7</text>		</g>
		<g id="shape3-132" v:mID="3" v:groupContext="shape" transform="translate(236.535,-260.787)">
			<title>Rechteck.3</title>
			<desc>“authData“: ...</desc>
			<v:userDefs>
				<v:ud v:nameU="visVersion" v:val="VT0(15):26"/>
			</v:userDefs>
			<v:textBlock v:margins="rect(4,4,4,4)" v:tabSpace="42.5197"/>
			<v:textRect cx="50.7087" cy="583.937" width="101.42" height="22.6772"/>
			<rect x="0" y="572.598" width="101.417" height="22.6772" class="st11"/>
			<text x="4" y="586.94" class="st2" v:langID="1031"><v:paragraph/><v:tabList/>“<tspan class="st12" v:langID="1033">authData</tspan>“:   ...</text>		</g>
		<g id="shape5-136" v:mID="5" v:groupContext="shape" transform="translate(135.118,-260.787)">
			<title>Rechteck.5</title>
			<desc>“fmt“: “packed“, ...</desc>
			<v:userDefs>
				<v:ud v:nameU="visVersion" v:val="VT0(15):26"/>
			</v:userDefs>
			<v:textBlock v:margins="rect(4,4,4,4)" v:tabSpace="42.5197"/>
			<v:textRect cx="50.7087" cy="583.937" width="101.42" height="22.6772"/>
			<rect x="0" y="572.598" width="101.417" height="22.6772" class="st11"/>
			<text x="4" y="586.94" class="st2" v:langID="1031"><v:paragraph/><v:tabList/>“f<tspan class="st12" v:langID="1033">mt</tspan><tspan
						class="st12" v:langID="1033">“</tspan>:   “<tspan class="st12" v:langID="1033">packed</tspan>“, ...</text>		</g>
		<g id="shape6-142" v:mID="6" v:groupContext="shape" transform="translate(337.953,-260.787)">
			<title>Rechteck.6</title>
			<desc>“attStmt“: ...</desc>
			<v:userDefs>
				<v:ud v:nameU="visVersion" v:val="VT0(15):26"/>
			</v:userDefs>
			<v:textBlock v:margins="rect(4,4,4,4)" v:tabSpace="42.5197"/>
			<v:textRect cx="50.7087" cy="583.937" width="101.42" height="22.6772"/>
			<rect x="0" y="572.598" width="101.417" height="22.6772" class="st11"/>
			<text x="4" y="586.94" class="st2" v:langID="1031"><v:paragraph/><v:tabList/>“<tspan class="st12" v:langID="1033">attStmt</tspan>“:   ...</text>		</g>
		<g id="shape55-146" v:mID="55" v:groupContext="shape" transform="translate(781.293,762.303) rotate(156.565)">
			<title>line160.55</title>
			<path d="M0 595.28 L222.77 595.28" class="st4"/>
		</g>
		<g id="shape56-149" v:mID="56" v:groupContext="shape" transform="translate(294.469,-326.73) rotate(25.0398)">
			<title>line158.56</title>
			<path d="M0 595.28 L214.32 595.28" class="st4"/>
		</g>
		<g id="shape57-152" v:mID="57" v:groupContext="shape" transform="translate(18,-496.063)">
			<title>Tabelle.57</title>
			<desc>AUTHENTICATOR DATA</desc>
			<v:textBlock v:margins="rect(4,4,4,4)" v:tabSpace="42.5197"/>
			<v:textRect cx="76" cy="585.276" width="152.01" height="20"/>
			<rect x="0" y="575.276" width="152" height="20" class="st1"/>
			<text x="4" y="588.28" class="st2" v:langID="1031"><v:paragraph/><v:tabList/>AUTHENTICATOR DATA</text>		</g>
		<g id="shape58-155" v:mID="58" v:groupContext="shape" transform="translate(18,-170.079)">
			<title>Tabelle.58</title>
			<desc>ATTESTATION STATEMENT</desc>
			<v:textBlock v:margins="rect(4,4,4,4)" v:tabSpace="42.5197"/>
			<v:textRect cx="76" cy="585.276" width="152.01" height="20"/>
			<rect x="0" y="575.276" width="152" height="20" class="st1"/>
			<text x="4" y="588.28" class="st2" v:langID="1031"><v:paragraph/><v:tabList/>ATTESTATION STATEMENT</text>		</g>
		<g id="shape60-158" v:mID="60" v:groupContext="shape" transform="translate(236.535,-133.228)">
			<title>Rechteck.3</title>
			<desc>“sig“: ...</desc>
			<v:userDefs>
				<v:ud v:nameU="visVersion" v:val="VT0(15):26"/>
			</v:userDefs>
			<v:textBlock v:margins="rect(4,4,4,4)" v:tabSpace="42.5197"/>
			<v:textRect cx="50.7087" cy="583.937" width="101.42" height="22.6772"/>
			<rect x="0" y="572.598" width="101.417" height="22.6772" class="st11"/>
			<text x="4" y="586.94" class="st2" v:langID="1031"><v:paragraph/><v:tabList/>“sig“:   ...</text>		</g>
		<g id="shape61-161" v:mID="61" v:groupContext="shape" transform="translate(135.118,-133.228)">
			<title>Rechteck.5</title>
			<desc>“alg“: ...</desc>
			<v:userDefs>
				<v:ud v:nameU="visVersion" v:val="VT0(15):26"/>
			</v:userDefs>
			<v:textBlock v:margins="rect(4,4,4,4)" v:tabSpace="42.5197"/>
			<v:textRect cx="50.7087" cy="583.937" width="101.42" height="22.6772"/>
			<rect x="0" y="572.598" width="101.417" height="22.6772" class="st11"/>
			<text x="4" y="586.94" class="st2" v:langID="1031"><v:paragraph/><v:tabList/>“alg<tspan class="st12" v:langID="1033">“</tspan>:   ...</text>		</g>
		<g id="shape62-165" v:mID="62" v:groupContext="shape" transform="translate(337.953,-133.228)">
			<title>Rechteck.6</title>
			<desc>“x5c“: ...</desc>
			<v:userDefs>
				<v:ud v:nameU="visVersion" v:val="VT0(15):26"/>
			</v:userDefs>
			<v:textBlock v:margins="rect(4,4,4,4)" v:tabSpace="42.5197"/>
			<v:textRect cx="50.7087" cy="583.937" width="101.42" height="22.6772"/>
			<rect x="0" y="572.598" width="101.417" height="22.6772" class="st11"/>
			<text x="4" y="586.94" class="st2" v:langID="1031"><v:paragraph/><v:tabList/>“x5c“:   ...</text>		</g>
		<g id="shape63-168" v:mID="63" v:groupContext="shape" transform="translate(18,-133.228)">
			<title>Tabelle.63</title>
			<desc>packed</desc>
			<v:textBlock v:margins="rect(4,4,4,4)" v:tabSpace="42.5197"/>
			<v:textRect cx="76" cy="585.276" width="152.01" height="20"/>
			<rect x="0" y="575.276" width="152" height="20" class="st1"/>
			<text x="4" y="588.28" class="st2" v:langID="1031"><v:paragraph/><v:tabList/>packed</text>		</g>
		<g id="shape64-171" v:mID="64" v:groupContext="shape" transform="translate(340.157,-122.759)">
			<title>text150.64</title>
			<desc>If Basic or Privacy CA</desc>
			<v:textBlock v:margins="rect(0,0,0,0)" v:tabSpace="42.5197"/>
			<v:textRect cx="50.025" cy="590.476" width="100.06" height="9.6"/>
			<rect x="0" y="585.676" width="100.05" height="9.6" class="st5"/>
			<text x="0" y="592.88" class="st7" v:langID="1031"><v:paragraph/><v:tabList/>If Basic or Privacy CA</text>		</g>
		<g id="shape65-174" v:mID="65" v:groupContext="shape" transform="translate(439.37,-133.228)">
			<title>Rechteck.65</title>
			<desc>“daaKey“: ...</desc>
			<v:userDefs>
				<v:ud v:nameU="visVersion" v:val="VT0(15):26"/>
			</v:userDefs>
			<v:textBlock v:margins="rect(4,4,4,4)" v:tabSpace="42.5197"/>
			<v:textRect cx="50.7087" cy="583.937" width="101.42" height="22.6772"/>
			<rect x="0" y="572.598" width="101.417" height="22.6772" class="st11"/>
			<text x="4" y="586.94" class="st2" v:langID="1031"><v:paragraph/><v:tabList/>“daaKey“:   ...</text>		</g>
		<g id="shape66-177" v:mID="66" v:groupContext="shape" transform="translate(439.37,-122.759)">
			<title>text150.66</title>
			<desc>If DAA</desc>
			<v:textBlock v:margins="rect(0,0,0,0)" v:tabSpace="42.5197"/>
			<v:textRect cx="50.025" cy="590.476" width="100.06" height="9.6"/>
			<rect x="0" y="585.676" width="100.05" height="9.6" class="st5"/>
			<text x="0" y="592.88" class="st7" v:langID="1031"><v:paragraph/><v:tabList/>If DAA</text>		</g>
		<g id="shape67-180" v:mID="67" v:groupContext="shape" transform="translate(18.0787,-70.8661)">
			<title>Tabelle.67</title>
			<desc>Other structures as defined in the respective attestation sta...</desc>
			<v:textBlock v:margins="rect(4,4,4,4)" v:tabSpace="42.5197"/>
			<v:textRect cx="76" cy="576.102" width="152.01" height="38.3465"/>
			<rect x="0" y="556.929" width="152" height="38.3465" class="st1"/>
			<text x="4" y="567.1" class="st2" v:langID="1031"><v:paragraph/><v:tabList/>Other structures as defined in the <tspan
						x="4" dy="1.2em" class="st12">respective attestation statement </tspan><tspan x="4" dy="1.2em" class="st12">format</tspan></text>		</g>
		<g id="shape68-185" v:mID="68" v:groupContext="shape" transform="translate(837.281,-102.584) rotate(41.9474)">
			<title>line158.68</title>
			<path d="M0 595.28 L135.7 595.28" class="st4"/>
		</g>
		<g id="shape69-188" v:mID="69" v:groupContext="shape" transform="translate(576.9,886.332) rotate(156.565)">
			<title>line160.69</title>
			<path d="M0 595.28 L222.77 595.28" class="st4"/>
		</g>
	</g>
</svg>
